<?xml version="1.0" standalone="no"?>
<!DOCTYPE svg PUBLIC "-//W3C//DTD SVG 20010904//EN"
 "http://www.w3.org/TR/2001/REC-SVG-20010904/DTD/svg10.dtd">
<svg version="1.0" xmlns="http://www.w3.org/2000/svg"
 width="752.000000pt" height="752.000000pt" viewBox="0 0 752.000000 752.000000"
 preserveAspectRatio="xMidYMid meet">

<g transform="translate(0.000000,752.000000) scale(0.100000,-0.100000)"
fill="#000000" stroke="none">
<path d="M2075 5376 c-45 -20 -83 -70 -90 -119 -3 -23 -5 -478 -3 -1012 l3
-970 23 -36 c34 -56 72 -69 199 -69 131 0 167 14 201 81 l22 44 -2 997 c-3
989 -3 997 -24 1024 -45 61 -66 69 -187 72 -78 1 -121 -2 -142 -12z"/>
<path d="M3842 5369 c-75 -38 -82 -64 -82 -299 l0 -200 150 0 150 0 0 193 c0
180 -1 196 -22 237 -43 83 -117 109 -196 69z"/>
<path d="M5185 5376 c-37 -17 -70 -52 -84 -89 -8 -19 -11 -339 -11 -1011 l0
-982 23 -44 c33 -66 67 -80 200 -80 127 0 165 13 199 69 l23 36 0 1007 c0
1001 0 1007 -21 1034 -45 61 -66 69 -187 72 -79 1 -121 -2 -142 -12z"/>
<path d="M3400 5222 c-19 -9 -45 -32 -57 -51 -23 -33 -23 -39 -23 -339 0 -286
1 -307 20 -337 11 -17 35 -40 53 -50 47 -25 128 -17 163 16 53 49 54 56 54
377 0 294 0 300 -23 333 -26 39 -79 69 -122 69 -16 0 -46 -8 -65 -18z"/>
<path d="M4281 5218 c-69 -47 -76 -65 -79 -213 l-4 -133 129 -5 c70 -3 138 -8
151 -12 l22 -7 0 137 c0 106 -4 145 -16 171 -36 76 -138 107 -203 62z"/>
<path d="M1659 5062 c-39 -20 -62 -41 -84 -77 l-30 -48 -3 -636 c-2 -454 0
-648 9 -677 26 -95 109 -155 218 -158 l66 -1 3 813 2 812 -64 0 c-50 0 -75 -6
-117 -28z"/>
<path d="M2950 5072 c-23 -11 -43 -33 -57 -62 -22 -42 -23 -56 -23 -255 0
-236 6 -260 69 -302 71 -48 175 -20 213 57 15 30 18 65 18 245 0 199 -1 213
-22 255 -26 51 -73 80 -128 80 -19 0 -51 -8 -70 -18z"/>
<path d="M5682 4279 l3 -814 66 1 c107 3 190 61 218 153 8 27 11 225 11 669
l0 630 -28 53 c-40 77 -100 113 -199 117 l-73 4 2 -813z"/>
<path d="M3760 4662 c0 -78 39 -155 98 -197 43 -30 46 -30 205 -35 89 -3 169
-9 179 -14 33 -15 39 -58 36 -229 -2 -134 -6 -169 -19 -182 -8 -8 -44 -20 -80
-26 -80 -13 -154 -53 -196 -108 -40 -51 -73 -155 -73 -226 0 -68 -26 -105 -75
-105 -48 0 -75 37 -75 105 0 57 30 187 55 234 l16 31 -481 0 -480 0 0 -72 c1
-88 14 -198 36 -287 21 -90 93 -236 143 -293 l41 -46 0 -506 c0 -349 3 -513
11 -529 6 -14 22 -30 36 -36 34 -16 1212 -15 1247 0 14 7 30 25 36 42 6 19 10
206 10 529 l0 500 41 46 c49 57 121 203 143 292 30 120 37 250 34 600 l-3 345
-28 57 c-16 32 -48 75 -73 97 -78 68 -96 71 -461 71 l-323 0 0 -58z"/>
<path d="M2580 4280 l0 -220 695 0 696 0 47 24 c26 13 62 27 80 31 l32 7 0 78
0 78 -122 4 c-136 4 -176 16 -259 80 l-45 35 -47 -43 c-106 -95 -269 -99 -375
-9 -38 33 -40 34 -56 16 -9 -10 -40 -31 -69 -47 -46 -26 -62 -29 -137 -29 -73
0 -92 4 -136 27 -59 31 -109 84 -136 145 l-19 43 -74 0 -75 0 0 -220z"/>
<path d="M4794 4463 c3 -21 6 -120 6 -220 l0 -183 70 0 70 0 0 220 0 220 -76
0 -77 0 7 -37z"/>
</g>
</svg>
