<?xml version="1.0" encoding="UTF-8"?>
<svg width="752pt" height="752pt" version="1.1" viewBox="0 0 752 752" xmlns="http://www.w3.org/2000/svg">
 <g>
  <path d="m479.6 501.8h-207.19c-4.0859 0-7.3984 3.3125-7.3984 7.3984 0 4.0859 3.3125 7.4023 7.3984 7.4023h207.19c4.0859 0 7.3984-3.3164 7.3984-7.4023 0-4.0859-3.3125-7.3984-7.3984-7.3984z"/>
  <path d="m479.6 464.8h-207.19c-4.0859 0-7.3984 3.3125-7.3984 7.4023 0 4.0859 3.3125 7.3984 7.3984 7.3984h207.19c4.0859 0 7.3984-3.3125 7.3984-7.3984 0-4.0898-3.3125-7.4023-7.3984-7.4023z"/>
  <path d="m479.6 427.8h-207.19c-4.0859 0-7.3984 3.3125-7.3984 7.3984 0 4.0859 3.3125 7.3984 7.3984 7.3984h207.19c4.0859 0 7.3984-3.3125 7.3984-7.3984 0-4.0859-3.3125-7.3984-7.3984-7.3984z"/>
  <path d="m494.4 191.01h-38.332c-1.5352-4.3125-4.3633-8.0469-8.0977-10.691-3.7344-2.6484-8.1914-4.082-12.77-4.1055h-18.5c-9.1367-13.512-24.387-21.609-40.699-21.609-16.309 0-31.559 8.0977-40.695 21.609h-18.5c-4.5781 0.023437-9.0391 1.457-12.77 4.1055-3.7344 2.6445-6.5625 6.3789-8.0977 10.691h-38.332c-17.652 0.027344-34.578 7.0547-47.059 19.539-12.484 12.48-19.512 29.406-19.539 47.059v273.79c0.027344 17.656 7.0547 34.578 19.539 47.062 12.48 12.484 29.406 19.508 47.059 19.535h236.79c17.652-0.027344 34.574-7.0508 47.059-19.535s19.508-29.406 19.535-47.062v-273.79c-0.027344-17.652-7.0508-34.578-19.535-47.059-12.484-12.484-29.406-19.512-47.059-19.539zm-118.4-7.3984c2.9961 0 5.6914 1.8008 6.8359 4.5664 1.1484 2.7656 0.51562 5.9492-1.6016 8.0664-2.1172 2.1172-5.3008 2.75-8.0664 1.6016-2.7617-1.1445-4.5664-3.8438-4.5664-6.8359 0-4.0859 3.3125-7.3984 7.3984-7.3984zm140.6 347.79c-0.019531 5.8828-2.3633 11.52-6.5234 15.68-4.1602 4.1562-9.7969 6.5039-15.676 6.5195h-236.79c-5.8828-0.015625-11.52-2.3633-15.676-6.5195-4.1602-4.1602-6.5039-9.7969-6.5234-15.68v-273.79c0.019531-5.8828 2.3633-11.52 6.5234-15.676 4.1562-4.1602 9.793-6.5039 15.676-6.5234h37c0.015625 5.8828 2.3594 11.52 6.5195 15.68 4.1602 4.1562 9.7969 6.5039 15.68 6.5195h118.39c5.8828-0.015625 11.52-2.3633 15.676-6.5195 4.1602-4.1602 6.5039-9.7969 6.5234-15.68h37c5.8789 0.019531 11.516 2.3633 15.676 6.5234 4.1602 4.1562 6.5039 9.793 6.5234 15.676z"/>
  <path d="m487 302h-14.797c-0.011719-3.9219-1.5781-7.6797-4.3477-10.453-2.7734-2.7695-6.5312-4.3359-10.453-4.3477h-29.598c-3.9219 0.011719-7.6797 1.5781-10.453 4.3477-2.7734 2.7734-4.3359 6.5312-4.3477 10.453v11.098l-73.996 0.003907v-11.102c-0.011718-3.9219-1.5742-7.6797-4.3477-10.453-2.7734-2.7695-6.5312-4.3359-10.453-4.3477h-29.598c-3.9219 0.011719-7.6797 1.5781-10.453 4.3477-2.7734 2.7734-4.3359 6.5312-4.3477 10.453h-14.797c-3.9219 0.011719-7.6797 1.5742-10.453 4.3477-2.7734 2.7734-4.3359 6.5312-4.3477 10.453v44.398c0.011719 3.9219 1.5742 7.6797 4.3477 10.449 2.7734 2.7734 6.5312 4.3359 10.453 4.3477h14.801-0.003906c0.011718 3.9219 1.5742 7.6797 4.3477 10.453 2.7734 2.7734 6.5312 4.3359 10.453 4.3477h29.598c3.9219-0.011719 7.6797-1.5742 10.453-4.3477s4.3359-6.5312 4.3477-10.453v-11.098h73.996v11.098c0.011719 3.9219 1.5742 7.6797 4.3477 10.453 2.7734 2.7734 6.5312 4.3359 10.453 4.3477h29.598c3.9219-0.011719 7.6797-1.5742 10.453-4.3477 2.7695-2.7734 4.3359-6.5312 4.3477-10.453h14.801-0.003906c3.9219-0.011719 7.6797-1.5742 10.453-4.3477 2.7734-2.7695 4.3359-6.5273 4.3477-10.449v-44.398c-0.011719-3.9219-1.5742-7.6797-4.3477-10.453-2.7734-2.7734-6.5312-4.3359-10.453-4.3477z"/>
 </g>
</svg>
