<?xml version="1.0" standalone="no"?>
<!DOCTYPE svg PUBLIC "-//W3C//DTD SVG 20010904//EN"
 "http://www.w3.org/TR/2001/REC-SVG-20010904/DTD/svg10.dtd">
<svg version="1.0" xmlns="http://www.w3.org/2000/svg"
 width="752.000000pt" height="752.000000pt" viewBox="0 0 752.000000 752.000000"
 preserveAspectRatio="xMidYMid meet">

<g transform="translate(0.000000,752.000000) scale(0.100000,-0.100000)"
fill="#000000" stroke="none">
<path d="M2422 5668 c-9 -9 -12 -75 -12 -234 0 -193 -2 -223 -16 -228 -9 -3
-82 -6 -162 -6 -81 -1 -192 -5 -247 -9 -82 -7 -101 -6 -108 6 -11 19 -53 34
-73 26 -8 -3 -19 -16 -24 -28 -8 -20 -20 -25 -100 -36 -77 -10 -94 -16 -107
-36 -14 -21 -14 -25 0 -47 12 -18 31 -26 84 -36 108 -19 100 -12 92 -83 -4
-34 -13 -137 -20 -229 l-12 -167 -36 -5 c-20 -3 -62 -8 -93 -11 -123 -13 -188
-113 -144 -220 21 -49 59 -65 161 -65 l85 0 0 -27 c0 -16 -5 -80 -10 -143 -5
-63 -23 -401 -40 -750 -38 -808 -56 -1130 -76 -1371 -7 -89 8 -129 58 -155 33
-17 70 -17 1048 12 118 4 656 10 1195 13 894 7 984 9 1025 25 178 68 260 244
260 556 0 91 -2 101 -25 129 -50 58 -146 65 -206 13 -43 -35 -48 -55 -59 -213
-15 -221 -29 -237 -229 -250 -337 -22 -1514 -56 -2280 -65 l-554 -7 6 54 c14
121 38 585 57 1104 19 519 44 992 55 1061 6 38 -9 35 340 64 283 23 679 45
1115 61 307 11 1195 7 1603 -8 l177 -6 -182 -186 c-269 -274 -519 -554 -743
-833 -106 -133 -111 -138 -148 -138 -42 0 -83 -18 -110 -47 -9 -11 -49 -132
-87 -269 -39 -137 -98 -330 -132 -430 -58 -171 -61 -183 -48 -214 19 -45 64
-70 126 -70 47 0 60 6 177 84 200 132 455 228 605 227 43 -1 75 5 100 18 20
10 98 84 172 162 74 79 252 268 395 419 143 151 334 353 424 449 89 96 187
196 217 223 73 67 150 172 165 225 27 98 -7 168 -128 259 -43 32 -130 108
-193 168 -155 147 -255 226 -286 226 -40 0 -63 -16 -166 -118 -95 -94 -97 -95
-92 -62 14 99 44 453 44 519 0 129 -50 196 -161 220 -29 6 -166 11 -324 11
-308 0 -278 -9 -290 85 -18 142 -58 372 -67 383 -14 17 -53 15 -68 -3 -9 -11
-11 -42 -5 -119 4 -58 4 -159 0 -225 l-8 -121 -403 0 c-317 0 -404 3 -404 13
0 6 -15 110 -34 231 -34 216 -40 236 -76 236 -41 0 -43 -9 -41 -232 1 -117 -1
-221 -4 -231 -7 -16 -35 -17 -374 -17 -201 0 -382 3 -402 6 -36 6 -37 7 -43
63 -14 125 -59 387 -69 399 -12 15 -49 16 -65 0z m-183 -684 l154 -7 -6 -70
c-4 -50 -2 -77 8 -97 29 -57 129 -65 173 -15 19 22 22 38 22 106 l0 79 385 0
385 0 -6 -79 c-7 -79 -7 -80 24 -110 35 -35 83 -41 131 -16 41 21 55 62 46
140 l-7 65 386 0 386 0 0 -79 c0 -95 4 -107 41 -126 44 -23 93 -19 128 11 30
25 31 29 31 105 l0 79 254 0 254 0 -5 -192 c-3 -106 -8 -196 -12 -200 -3 -4
-148 -3 -321 2 -413 13 -2253 17 -2535 7 l-220 -9 -3 213 -2 212 77 -6 c43 -4
147 -9 232 -13z m3425 -767 c102 -101 186 -187 186 -191 0 -5 -110 -122 -243
-260 -452 -465 -801 -833 -915 -964 -49 -56 -67 -70 -79 -63 -9 5 -103 93
-208 197 l-192 189 228 223 c125 123 308 307 405 410 341 359 616 642 624 642
4 0 92 -82 194 -183z m-1432 -1458 c76 -64 89 -79 66 -79 -7 -1 -56 -18 -108
-39 -52 -21 -97 -37 -98 -36 -2 2 8 43 23 92 14 48 28 96 31 106 3 9 7 17 9
17 2 0 36 -28 77 -61z"/>
<path d="M2605 3864 c-38 -7 -129 -17 -201 -23 -148 -11 -180 -20 -196 -55
-17 -39 9 -69 79 -92 49 -16 88 -19 258 -19 221 0 255 7 280 56 22 42 18 83
-11 118 -23 28 -31 31 -82 30 -32 -1 -88 -7 -127 -15z"/>
<path d="M3480 3864 c-41 -8 -133 -18 -203 -24 -142 -11 -177 -22 -191 -62
-24 -67 62 -98 291 -105 208 -7 265 0 306 37 27 24 32 35 32 75 0 39 -5 51
-28 71 -33 28 -86 30 -207 8z"/>
<path d="M2615 3280 c-60 -9 -155 -21 -210 -24 -129 -9 -171 -21 -191 -52 -25
-37 -7 -68 53 -88 113 -39 424 -47 505 -13 62 26 84 82 56 142 -13 29 -56 56
-85 54 -10 -1 -67 -9 -128 -19z"/>
<path d="M3520 3284 c-47 -7 -152 -20 -233 -28 -183 -17 -227 -40 -199 -101
18 -40 119 -64 291 -71 161 -7 261 5 300 34 57 42 49 141 -14 168 -40 16 -34
16 -145 -2z"/>
<path d="M2615 2694 c-38 -7 -130 -18 -203 -24 -74 -6 -148 -17 -167 -24 -72
-31 -50 -95 43 -123 75 -24 437 -26 490 -4 65 27 82 112 33 162 -34 34 -75 36
-196 13z"/>
</g>
</svg>
